<svg width="19" height="19" viewBox="0 0 19 19" fill="none" xmlns="http://www.w3.org/2000/svg">
<g clip-path="url(#clip0_10_74)">
<path fill-rule="evenodd" clip-rule="evenodd" d="M16.1999 2.76133C14.4218 0.981667 12.0579 0.000791667 9.53962 0C4.35025 0 0.126708 4.22275 0.124333 9.4145C0.123541 11.0738 0.557374 12.6936 1.3815 14.1217L0.045166 19L5.03583 17.6906C6.41096 18.4411 7.95946 18.8361 9.53487 18.8369H9.53883C14.7274 18.8369 18.9518 14.6134 18.9541 9.42163C18.9557 6.9065 17.9772 4.54021 16.1999 2.76133ZM9.53962 17.2465H9.53646C8.13204 17.2465 6.75533 16.8688 5.55358 16.1555L5.26779 15.9861L2.30617 16.7628L3.09704 13.8747L2.911 13.5787C2.12725 12.3326 1.714 10.8925 1.71479 9.4145C1.71637 5.09992 5.22742 1.58967 9.54358 1.58967C11.6336 1.58967 13.5985 2.40508 15.0757 3.88392C16.553 5.36354 17.366 7.32925 17.3652 9.42004C17.3629 13.7362 13.8526 17.2465 9.53962 17.2465ZM13.832 11.3858C13.5969 11.2678 12.4403 10.6986 12.2242 10.6202C12.0088 10.5418 11.8521 10.5023 11.6945 10.7374C11.537 10.9725 11.0873 11.5029 10.9496 11.6605C10.8126 11.8172 10.6749 11.837 10.4397 11.719C10.2046 11.6011 9.44621 11.3533 8.54767 10.5513C7.84862 9.9275 7.376 9.15721 7.23904 8.92129C7.10208 8.68538 7.22479 8.55871 7.34196 8.44154C7.44804 8.33625 7.57708 8.16683 7.69504 8.02908C7.81379 7.89292 7.85258 7.79475 7.93175 7.63721C8.01012 7.48046 7.97133 7.34271 7.91196 7.22475C7.85258 7.10758 7.38233 5.94938 7.18679 5.47833C6.996 5.01917 6.80204 5.08171 6.65717 5.07458C6.52021 5.06746 6.36346 5.06667 6.20592 5.06667C6.04917 5.06667 5.79425 5.12525 5.57892 5.36117C5.36358 5.59708 4.75558 6.16629 4.75558 7.32371C4.75558 8.48192 5.59871 9.60054 5.71587 9.75729C5.83304 9.91404 7.37442 12.2906 9.73437 13.3095C10.2957 13.5518 10.7342 13.6966 11.0755 13.8051C11.6391 13.984 12.1521 13.9587 12.5575 13.8985C13.0095 13.8312 13.9492 13.3293 14.1455 12.7799C14.3419 12.2305 14.3419 11.7586 14.2825 11.6612C14.2239 11.5623 14.0672 11.5037 13.832 11.3858Z" fill="#171717"/>
</g>
<defs>
<clipPath id="clip0_10_74">
<rect width="19" height="19" fill="white"/>
</clipPath>
</defs>
</svg>
